<mxfile host="65bd71144e">
    <diagram id="3gbxchGy_pvEOZhKmqDH" name="Page-1">
        <mxGraphModel dx="911" dy="519" grid="1" gridSize="10" guides="1" tooltips="1" connect="1" arrows="1" fold="1" page="1" pageScale="1" pageWidth="850" pageHeight="1100" background="#000014" math="0" shadow="0">
            <root>
                <mxCell id="0"/>
                <mxCell id="1" parent="0"/>
                <mxCell id="3" value="F1" style="ellipse;whiteSpace=wrap;html=1;aspect=fixed;fillStyle=auto;fillColor=#33FF33;fontStyle=1;labelBorderColor=none;labelBackgroundColor=none;shadow=0;gradientDirection=radial;strokeColor=none;gradientColor=default;" vertex="1" parent="1">
                    <mxGeometry x="40" y="264" width="30" height="30" as="geometry"/>
                </mxCell>
                <mxCell id="23" value="F1" style="ellipse;whiteSpace=wrap;html=1;aspect=fixed;fillStyle=auto;fillColor=#33FF33;fontStyle=1;labelBorderColor=none;labelBackgroundColor=none;shadow=0;gradientDirection=radial;strokeColor=none;gradientColor=default;" vertex="1" parent="1">
                    <mxGeometry x="40" y="304" width="30" height="30" as="geometry"/>
                </mxCell>
                <mxCell id="24" value="F1" style="ellipse;whiteSpace=wrap;html=1;aspect=fixed;fillStyle=auto;fillColor=#33FF33;fontStyle=1;labelBorderColor=none;labelBackgroundColor=none;shadow=0;gradientDirection=radial;strokeColor=none;gradientColor=default;" vertex="1" parent="1">
                    <mxGeometry x="40" y="344" width="30" height="30" as="geometry"/>
                </mxCell>
                <mxCell id="25" value="F1" style="ellipse;whiteSpace=wrap;html=1;aspect=fixed;fillStyle=auto;fillColor=#33FF33;fontStyle=1;labelBorderColor=none;labelBackgroundColor=none;shadow=0;gradientDirection=radial;strokeColor=none;gradientColor=default;" vertex="1" parent="1">
                    <mxGeometry x="40" y="384" width="30" height="30" as="geometry"/>
                </mxCell>
                <mxCell id="27" value="F1" style="ellipse;whiteSpace=wrap;html=1;aspect=fixed;fillStyle=auto;fillColor=#33FF33;fontStyle=1;labelBorderColor=none;labelBackgroundColor=none;shadow=0;gradientDirection=radial;strokeColor=none;gradientColor=default;" vertex="1" parent="1">
                    <mxGeometry x="40" y="424" width="30" height="30" as="geometry"/>
                </mxCell>
                <mxCell id="28" value="F1" style="ellipse;whiteSpace=wrap;html=1;aspect=fixed;fillStyle=auto;fillColor=#33FF33;fontStyle=1;labelBorderColor=none;labelBackgroundColor=none;shadow=0;gradientDirection=radial;strokeColor=none;gradientColor=default;" vertex="1" parent="1">
                    <mxGeometry x="40" y="464" width="30" height="30" as="geometry"/>
                </mxCell>
                <mxCell id="29" value="F1" style="ellipse;whiteSpace=wrap;html=1;aspect=fixed;fillStyle=auto;fillColor=#33FF33;fontStyle=1;labelBorderColor=none;labelBackgroundColor=none;shadow=0;gradientDirection=radial;strokeColor=none;gradientColor=default;" vertex="1" parent="1">
                    <mxGeometry x="40" y="504" width="30" height="30" as="geometry"/>
                </mxCell>
                <mxCell id="30" value="F1" style="ellipse;whiteSpace=wrap;html=1;aspect=fixed;fillStyle=auto;fillColor=#33FF33;fontStyle=1;labelBorderColor=none;labelBackgroundColor=none;shadow=0;gradientDirection=radial;strokeColor=none;gradientColor=default;" vertex="1" parent="1">
                    <mxGeometry x="40" y="544" width="30" height="30" as="geometry"/>
                </mxCell>
                <mxCell id="31" value="F1" style="ellipse;whiteSpace=wrap;html=1;aspect=fixed;fillStyle=auto;fillColor=#33FF33;fontStyle=1;labelBorderColor=none;labelBackgroundColor=none;shadow=0;gradientDirection=radial;strokeColor=none;gradientColor=default;" vertex="1" parent="1">
                    <mxGeometry x="40" y="584" width="30" height="30" as="geometry"/>
                </mxCell>
                <mxCell id="32" value="F1" style="ellipse;whiteSpace=wrap;html=1;aspect=fixed;fillStyle=auto;fillColor=#33FF33;fontStyle=1;labelBorderColor=none;labelBackgroundColor=none;shadow=0;gradientDirection=radial;strokeColor=none;gradientColor=default;" vertex="1" parent="1">
                    <mxGeometry x="40" y="624" width="30" height="30" as="geometry"/>
                </mxCell>
                <mxCell id="33" value="F1" style="ellipse;whiteSpace=wrap;html=1;aspect=fixed;fillStyle=auto;fillColor=#33FF33;fontStyle=1;labelBorderColor=none;labelBackgroundColor=none;shadow=0;gradientDirection=radial;strokeColor=none;gradientColor=default;" vertex="1" parent="1">
                    <mxGeometry x="40" y="664" width="30" height="30" as="geometry"/>
                </mxCell>
                <mxCell id="34" value="F1" style="ellipse;whiteSpace=wrap;html=1;aspect=fixed;fillStyle=auto;fillColor=#33FF33;fontStyle=1;labelBorderColor=none;labelBackgroundColor=none;shadow=0;gradientDirection=radial;strokeColor=none;gradientColor=default;" vertex="1" parent="1">
                    <mxGeometry x="40" y="704" width="30" height="30" as="geometry"/>
                </mxCell>
                <mxCell id="35" value="F1" style="ellipse;whiteSpace=wrap;html=1;aspect=fixed;fillStyle=auto;fillColor=#33FF33;fontStyle=1;labelBorderColor=none;labelBackgroundColor=none;shadow=0;gradientDirection=radial;strokeColor=none;gradientColor=default;" vertex="1" parent="1">
                    <mxGeometry x="40" y="744" width="30" height="30" as="geometry"/>
                </mxCell>
                <mxCell id="36" value="F1" style="ellipse;whiteSpace=wrap;html=1;aspect=fixed;fillStyle=auto;fillColor=#33FF33;fontStyle=1;labelBorderColor=none;labelBackgroundColor=none;shadow=0;gradientDirection=radial;strokeColor=none;gradientColor=default;" vertex="1" parent="1">
                    <mxGeometry x="169" width="30" height="30" as="geometry"/>
                </mxCell>
                <mxCell id="37" value="F1" style="ellipse;whiteSpace=wrap;html=1;aspect=fixed;fillStyle=auto;fillColor=#33FF33;fontStyle=1;labelBorderColor=none;labelBackgroundColor=none;shadow=0;gradientDirection=radial;strokeColor=none;gradientColor=default;" vertex="1" parent="1">
                    <mxGeometry x="169" y="40" width="30" height="30" as="geometry"/>
                </mxCell>
                <mxCell id="38" value="F1" style="ellipse;whiteSpace=wrap;html=1;aspect=fixed;fillStyle=auto;fillColor=#33FF33;fontStyle=1;labelBorderColor=none;labelBackgroundColor=none;shadow=0;gradientDirection=radial;strokeColor=none;gradientColor=default;" vertex="1" parent="1">
                    <mxGeometry x="169" y="80" width="30" height="30" as="geometry"/>
                </mxCell>
                <mxCell id="39" value="F1" style="ellipse;whiteSpace=wrap;html=1;aspect=fixed;fillStyle=auto;fillColor=#33FF33;fontStyle=1;labelBorderColor=none;labelBackgroundColor=none;shadow=0;gradientDirection=radial;strokeColor=none;gradientColor=default;" vertex="1" parent="1">
                    <mxGeometry x="169" y="120" width="30" height="30" as="geometry"/>
                </mxCell>
                <mxCell id="40" value="F1" style="ellipse;whiteSpace=wrap;html=1;aspect=fixed;fillStyle=auto;fillColor=#33FF33;fontStyle=1;labelBorderColor=none;labelBackgroundColor=none;shadow=0;gradientDirection=radial;strokeColor=none;gradientColor=default;" vertex="1" parent="1">
                    <mxGeometry x="169" y="160" width="30" height="30" as="geometry"/>
                </mxCell>
                <mxCell id="41" value="F1" style="ellipse;whiteSpace=wrap;html=1;aspect=fixed;fillStyle=auto;fillColor=#33FF33;fontStyle=1;labelBorderColor=none;labelBackgroundColor=none;shadow=0;gradientDirection=radial;strokeColor=none;gradientColor=default;" vertex="1" parent="1">
                    <mxGeometry x="169" y="200" width="30" height="30" as="geometry"/>
                </mxCell>
                <mxCell id="42" value="F1" style="ellipse;whiteSpace=wrap;html=1;aspect=fixed;fillStyle=auto;fillColor=#33FF33;fontStyle=1;labelBorderColor=none;labelBackgroundColor=none;shadow=0;gradientDirection=radial;strokeColor=none;gradientColor=default;" vertex="1" parent="1">
                    <mxGeometry x="169" y="240" width="30" height="30" as="geometry"/>
                </mxCell>
                <mxCell id="43" value="F1" style="ellipse;whiteSpace=wrap;html=1;aspect=fixed;fillStyle=auto;fillColor=#33FF33;fontStyle=1;labelBorderColor=none;labelBackgroundColor=none;shadow=0;gradientDirection=radial;strokeColor=none;gradientColor=default;" vertex="1" parent="1">
                    <mxGeometry x="169" y="280" width="30" height="30" as="geometry"/>
                </mxCell>
                <mxCell id="44" value="F1" style="ellipse;whiteSpace=wrap;html=1;aspect=fixed;fillStyle=auto;fillColor=#33FF33;fontStyle=1;labelBorderColor=none;labelBackgroundColor=none;shadow=0;gradientDirection=radial;strokeColor=none;gradientColor=default;" vertex="1" parent="1">
                    <mxGeometry x="169" y="320" width="30" height="30" as="geometry"/>
                </mxCell>
                <mxCell id="45" value="F1" style="ellipse;whiteSpace=wrap;html=1;aspect=fixed;fillStyle=auto;fillColor=#33FF33;fontStyle=1;labelBorderColor=none;labelBackgroundColor=none;shadow=0;gradientDirection=radial;strokeColor=none;gradientColor=default;" vertex="1" parent="1">
                    <mxGeometry x="169" y="360" width="30" height="30" as="geometry"/>
                </mxCell>
                <mxCell id="46" value="F1" style="ellipse;whiteSpace=wrap;html=1;aspect=fixed;fillStyle=auto;fillColor=#33FF33;fontStyle=1;labelBorderColor=none;labelBackgroundColor=none;shadow=0;gradientDirection=radial;strokeColor=none;gradientColor=default;" vertex="1" parent="1">
                    <mxGeometry x="169" y="400" width="30" height="30" as="geometry"/>
                </mxCell>
                <mxCell id="47" value="F1" style="ellipse;whiteSpace=wrap;html=1;aspect=fixed;fillStyle=auto;fillColor=#33FF33;fontStyle=1;labelBorderColor=none;labelBackgroundColor=none;shadow=0;gradientDirection=radial;strokeColor=none;gradientColor=default;" vertex="1" parent="1">
                    <mxGeometry x="169" y="440" width="30" height="30" as="geometry"/>
                </mxCell>
                <mxCell id="48" value="F1" style="ellipse;whiteSpace=wrap;html=1;aspect=fixed;fillStyle=auto;fillColor=#33FF33;fontStyle=1;labelBorderColor=none;labelBackgroundColor=none;shadow=0;gradientDirection=radial;strokeColor=none;gradientColor=default;" vertex="1" parent="1">
                    <mxGeometry x="169" y="480" width="30" height="30" as="geometry"/>
                </mxCell>
                <mxCell id="49" value="F1" style="ellipse;whiteSpace=wrap;html=1;aspect=fixed;fillStyle=auto;fillColor=#33FF33;fontStyle=1;labelBorderColor=none;labelBackgroundColor=none;shadow=0;gradientDirection=radial;strokeColor=none;gradientColor=default;" vertex="1" parent="1">
                    <mxGeometry x="169" y="520" width="30" height="30" as="geometry"/>
                </mxCell>
                <mxCell id="50" value="F1" style="ellipse;whiteSpace=wrap;html=1;aspect=fixed;fillStyle=auto;fillColor=#33FF33;fontStyle=1;labelBorderColor=none;labelBackgroundColor=none;shadow=0;gradientDirection=radial;strokeColor=none;gradientColor=default;" vertex="1" parent="1">
                    <mxGeometry x="169" y="560" width="30" height="30" as="geometry"/>
                </mxCell>
                <mxCell id="51" value="F1" style="ellipse;whiteSpace=wrap;html=1;aspect=fixed;fillStyle=auto;fillColor=#33FF33;fontStyle=1;labelBorderColor=none;labelBackgroundColor=none;shadow=0;gradientDirection=radial;strokeColor=none;gradientColor=default;" vertex="1" parent="1">
                    <mxGeometry x="169" y="600" width="30" height="30" as="geometry"/>
                </mxCell>
                <mxCell id="52" value="F1" style="ellipse;whiteSpace=wrap;html=1;aspect=fixed;fillStyle=auto;fillColor=#33FF33;fontStyle=1;labelBorderColor=none;labelBackgroundColor=none;shadow=0;gradientDirection=radial;strokeColor=none;gradientColor=default;" vertex="1" parent="1">
                    <mxGeometry x="169" y="640" width="30" height="30" as="geometry"/>
                </mxCell>
                <mxCell id="53" value="F1" style="ellipse;whiteSpace=wrap;html=1;aspect=fixed;fillStyle=auto;fillColor=#33FF33;fontStyle=1;labelBorderColor=none;labelBackgroundColor=none;shadow=0;gradientDirection=radial;strokeColor=none;gradientColor=default;" vertex="1" parent="1">
                    <mxGeometry x="169" y="680" width="30" height="30" as="geometry"/>
                </mxCell>
                <mxCell id="54" value="F1" style="ellipse;whiteSpace=wrap;html=1;aspect=fixed;fillStyle=auto;fillColor=#33FF33;fontStyle=1;labelBorderColor=none;labelBackgroundColor=none;shadow=0;gradientDirection=radial;strokeColor=none;gradientColor=default;" vertex="1" parent="1">
                    <mxGeometry x="169" y="720" width="30" height="30" as="geometry"/>
                </mxCell>
                <mxCell id="55" value="F1" style="ellipse;whiteSpace=wrap;html=1;aspect=fixed;fillStyle=auto;fillColor=#33FF33;fontStyle=1;labelBorderColor=none;labelBackgroundColor=none;shadow=0;gradientDirection=radial;strokeColor=none;gradientColor=default;" vertex="1" parent="1">
                    <mxGeometry x="169" y="760" width="30" height="30" as="geometry"/>
                </mxCell>
                <mxCell id="56" value="F1" style="ellipse;whiteSpace=wrap;html=1;aspect=fixed;fillStyle=auto;fillColor=#33FF33;fontStyle=1;labelBorderColor=none;labelBackgroundColor=none;shadow=0;gradientDirection=radial;strokeColor=none;gradientColor=default;" vertex="1" parent="1">
                    <mxGeometry x="169" y="800" width="30" height="30" as="geometry"/>
                </mxCell>
                <mxCell id="57" value="F1" style="ellipse;whiteSpace=wrap;html=1;aspect=fixed;fillStyle=auto;fillColor=#33FF33;fontStyle=1;labelBorderColor=none;labelBackgroundColor=none;shadow=0;gradientDirection=radial;strokeColor=none;gradientColor=default;" vertex="1" parent="1">
                    <mxGeometry x="169" y="840" width="30" height="30" as="geometry"/>
                </mxCell>
                <mxCell id="58" value="F1" style="ellipse;whiteSpace=wrap;html=1;aspect=fixed;fillStyle=auto;fillColor=#33FF33;fontStyle=1;labelBorderColor=none;labelBackgroundColor=none;shadow=0;gradientDirection=radial;strokeColor=none;gradientColor=default;" vertex="1" parent="1">
                    <mxGeometry x="169" y="880" width="30" height="30" as="geometry"/>
                </mxCell>
                <mxCell id="59" value="F1" style="ellipse;whiteSpace=wrap;html=1;aspect=fixed;fillStyle=auto;fillColor=#33FF33;fontStyle=1;labelBorderColor=none;labelBackgroundColor=none;shadow=0;gradientDirection=radial;strokeColor=none;gradientColor=default;" vertex="1" parent="1">
                    <mxGeometry x="169" y="920" width="30" height="30" as="geometry"/>
                </mxCell>
                <mxCell id="60" value="F1" style="ellipse;whiteSpace=wrap;html=1;aspect=fixed;fillStyle=auto;fillColor=#33FF33;fontStyle=1;labelBorderColor=none;labelBackgroundColor=none;shadow=0;gradientDirection=radial;strokeColor=none;gradientColor=default;" vertex="1" parent="1">
                    <mxGeometry x="169" y="960" width="30" height="30" as="geometry"/>
                </mxCell>
                <mxCell id="61" value="F1" style="ellipse;whiteSpace=wrap;html=1;aspect=fixed;fillStyle=auto;fillColor=#33FF33;fontStyle=1;labelBorderColor=none;labelBackgroundColor=none;shadow=0;gradientDirection=radial;strokeColor=none;gradientColor=default;" vertex="1" parent="1">
                    <mxGeometry x="169" y="1000" width="30" height="30" as="geometry"/>
                </mxCell>
                <mxCell id="62" value="F1" style="ellipse;whiteSpace=wrap;html=1;aspect=fixed;fillStyle=auto;fillColor=#33FF33;fontStyle=1;labelBorderColor=none;labelBackgroundColor=none;shadow=0;gradientDirection=radial;strokeColor=none;gradientColor=default;" vertex="1" parent="1">
                    <mxGeometry x="289" y="162" width="30" height="30" as="geometry"/>
                </mxCell>
                <mxCell id="63" value="F1" style="ellipse;whiteSpace=wrap;html=1;aspect=fixed;fillStyle=auto;fillColor=#33FF33;fontStyle=1;labelBorderColor=none;labelBackgroundColor=none;shadow=0;gradientDirection=radial;strokeColor=none;gradientColor=default;" vertex="1" parent="1">
                    <mxGeometry x="289" y="202" width="30" height="30" as="geometry"/>
                </mxCell>
                <mxCell id="64" value="F1" style="ellipse;whiteSpace=wrap;html=1;aspect=fixed;fillStyle=auto;fillColor=#33FF33;fontStyle=1;labelBorderColor=none;labelBackgroundColor=none;shadow=0;gradientDirection=radial;strokeColor=none;gradientColor=default;" vertex="1" parent="1">
                    <mxGeometry x="289" y="242" width="30" height="30" as="geometry"/>
                </mxCell>
                <mxCell id="65" value="F1" style="ellipse;whiteSpace=wrap;html=1;aspect=fixed;fillStyle=auto;fillColor=#33FF33;fontStyle=1;labelBorderColor=none;labelBackgroundColor=none;shadow=0;gradientDirection=radial;strokeColor=none;gradientColor=default;" vertex="1" parent="1">
                    <mxGeometry x="289" y="282" width="30" height="30" as="geometry"/>
                </mxCell>
                <mxCell id="66" value="F1" style="ellipse;whiteSpace=wrap;html=1;aspect=fixed;fillStyle=auto;fillColor=#33FF33;fontStyle=1;labelBorderColor=none;labelBackgroundColor=none;shadow=0;gradientDirection=radial;strokeColor=none;gradientColor=default;" vertex="1" parent="1">
                    <mxGeometry x="289" y="322" width="30" height="30" as="geometry"/>
                </mxCell>
                <mxCell id="67" value="F1" style="ellipse;whiteSpace=wrap;html=1;aspect=fixed;fillStyle=auto;fillColor=#33FF33;fontStyle=1;labelBorderColor=none;labelBackgroundColor=none;shadow=0;gradientDirection=radial;strokeColor=none;gradientColor=default;" vertex="1" parent="1">
                    <mxGeometry x="289" y="362" width="30" height="30" as="geometry"/>
                </mxCell>
                <mxCell id="68" value="F1" style="ellipse;whiteSpace=wrap;html=1;aspect=fixed;fillStyle=auto;fillColor=#33FF33;fontStyle=1;labelBorderColor=none;labelBackgroundColor=none;shadow=0;gradientDirection=radial;strokeColor=none;gradientColor=default;" vertex="1" parent="1">
                    <mxGeometry x="289" y="402" width="30" height="30" as="geometry"/>
                </mxCell>
                <mxCell id="69" value="F1" style="ellipse;whiteSpace=wrap;html=1;aspect=fixed;fillStyle=auto;fillColor=#33FF33;fontStyle=1;labelBorderColor=none;labelBackgroundColor=none;shadow=0;gradientDirection=radial;strokeColor=none;gradientColor=default;" vertex="1" parent="1">
                    <mxGeometry x="289" y="442" width="30" height="30" as="geometry"/>
                </mxCell>
                <mxCell id="70" value="F1" style="ellipse;whiteSpace=wrap;html=1;aspect=fixed;fillStyle=auto;fillColor=#33FF33;fontStyle=1;labelBorderColor=none;labelBackgroundColor=none;shadow=0;gradientDirection=radial;strokeColor=none;gradientColor=default;" vertex="1" parent="1">
                    <mxGeometry x="289" y="482" width="30" height="30" as="geometry"/>
                </mxCell>
                <mxCell id="71" value="F1" style="ellipse;whiteSpace=wrap;html=1;aspect=fixed;fillStyle=auto;fillColor=#33FF33;fontStyle=1;labelBorderColor=none;labelBackgroundColor=none;shadow=0;gradientDirection=radial;strokeColor=none;gradientColor=default;" vertex="1" parent="1">
                    <mxGeometry x="289" y="522" width="30" height="30" as="geometry"/>
                </mxCell>
                <mxCell id="72" value="F1" style="ellipse;whiteSpace=wrap;html=1;aspect=fixed;fillStyle=auto;fillColor=#33FF33;fontStyle=1;labelBorderColor=none;labelBackgroundColor=none;shadow=0;gradientDirection=radial;strokeColor=none;gradientColor=default;" vertex="1" parent="1">
                    <mxGeometry x="289" y="562" width="30" height="30" as="geometry"/>
                </mxCell>
                <mxCell id="73" value="F1" style="ellipse;whiteSpace=wrap;html=1;aspect=fixed;fillStyle=auto;fillColor=#33FF33;fontStyle=1;labelBorderColor=none;labelBackgroundColor=none;shadow=0;gradientDirection=radial;strokeColor=none;gradientColor=default;" vertex="1" parent="1">
                    <mxGeometry x="289" y="602" width="30" height="30" as="geometry"/>
                </mxCell>
                <mxCell id="74" value="F1" style="ellipse;whiteSpace=wrap;html=1;aspect=fixed;fillStyle=auto;fillColor=#33FF33;fontStyle=1;labelBorderColor=none;labelBackgroundColor=none;shadow=0;gradientDirection=radial;strokeColor=none;gradientColor=default;" vertex="1" parent="1">
                    <mxGeometry x="289" y="642" width="30" height="30" as="geometry"/>
                </mxCell>
                <mxCell id="84" value="F1" style="ellipse;whiteSpace=wrap;html=1;aspect=fixed;fillStyle=auto;fillColor=#33FF33;fontStyle=1;labelBorderColor=none;labelBackgroundColor=none;shadow=0;gradientDirection=radial;strokeColor=none;gradientColor=default;" vertex="1" parent="1">
                    <mxGeometry x="289" y="680" width="30" height="30" as="geometry"/>
                </mxCell>
                <mxCell id="85" value="F1" style="ellipse;whiteSpace=wrap;html=1;aspect=fixed;fillStyle=auto;fillColor=#33FF33;fontStyle=1;labelBorderColor=none;labelBackgroundColor=none;shadow=0;gradientDirection=radial;strokeColor=none;gradientColor=default;" vertex="1" parent="1">
                    <mxGeometry x="289" y="720" width="30" height="30" as="geometry"/>
                </mxCell>
                <mxCell id="86" value="F1" style="ellipse;whiteSpace=wrap;html=1;aspect=fixed;fillStyle=auto;fillColor=#33FF33;fontStyle=1;labelBorderColor=none;labelBackgroundColor=none;shadow=0;gradientDirection=radial;strokeColor=none;gradientColor=default;" vertex="1" parent="1">
                    <mxGeometry x="289" y="760" width="30" height="30" as="geometry"/>
                </mxCell>
                <mxCell id="87" value="F1" style="ellipse;whiteSpace=wrap;html=1;aspect=fixed;fillStyle=auto;fillColor=#33FF33;fontStyle=1;labelBorderColor=none;labelBackgroundColor=none;shadow=0;gradientDirection=radial;strokeColor=none;gradientColor=default;" vertex="1" parent="1">
                    <mxGeometry x="289" y="800" width="30" height="30" as="geometry"/>
                </mxCell>
                <mxCell id="88" value="" style="endArrow=blockThin;html=1;fontColor=#190033;strokeColor=#0e8088;endSize=6;targetPerimeterSpacing=0;sourcePerimeterSpacing=0;strokeWidth=3;endFill=1;exitX=1;exitY=0.5;exitDx=0;exitDy=0;entryX=0;entryY=0.5;entryDx=0;entryDy=0;fillColor=#b0e3e6;" edge="1" parent="1" source="3" target="43">
                    <mxGeometry width="50" height="50" relative="1" as="geometry">
                        <mxPoint x="490" y="550" as="sourcePoint"/>
                        <mxPoint x="540" y="500" as="targetPoint"/>
                    </mxGeometry>
                </mxCell>
                <mxCell id="89" value="" style="endArrow=blockThin;html=1;fontColor=#190033;strokeColor=#0e8088;endSize=6;targetPerimeterSpacing=0;sourcePerimeterSpacing=0;strokeWidth=3;endFill=1;exitX=1;exitY=0.5;exitDx=0;exitDy=0;entryX=0;entryY=0.5;entryDx=0;entryDy=0;fillColor=#b0e3e6;" edge="1" parent="1" source="3" target="42">
                    <mxGeometry width="50" height="50" relative="1" as="geometry">
                        <mxPoint x="59.99999999999443" y="176" as="sourcePoint"/>
                        <mxPoint x="159" y="192" as="targetPoint"/>
                    </mxGeometry>
                </mxCell>
                <mxCell id="90" value="" style="endArrow=blockThin;html=1;fontColor=#190033;strokeColor=#0e8088;endSize=6;targetPerimeterSpacing=0;sourcePerimeterSpacing=0;strokeWidth=3;endFill=1;exitX=1;exitY=0.5;exitDx=0;exitDy=0;entryX=0;entryY=0.5;entryDx=0;entryDy=0;fillColor=#b0e3e6;" edge="1" parent="1" source="3" target="44">
                    <mxGeometry width="50" height="50" relative="1" as="geometry">
                        <mxPoint x="89.99999999999443" y="299" as="sourcePoint"/>
                        <mxPoint x="189" y="315" as="targetPoint"/>
                    </mxGeometry>
                </mxCell>
                <mxCell id="91" value="" style="endArrow=blockThin;html=1;fontColor=#190033;strokeColor=#0e8088;endSize=6;targetPerimeterSpacing=0;sourcePerimeterSpacing=0;strokeWidth=3;endFill=1;exitX=1;exitY=0.5;exitDx=0;exitDy=0;entryX=0;entryY=0.5;entryDx=0;entryDy=0;fillColor=#b0e3e6;" edge="1" parent="1" source="3" target="41">
                    <mxGeometry width="50" height="50" relative="1" as="geometry">
                        <mxPoint x="99.99999999999443" y="309" as="sourcePoint"/>
                        <mxPoint x="199" y="325" as="targetPoint"/>
                    </mxGeometry>
                </mxCell>
                <mxCell id="92" value="" style="endArrow=blockThin;html=1;fontColor=#190033;strokeColor=#0e8088;endSize=6;targetPerimeterSpacing=0;sourcePerimeterSpacing=0;strokeWidth=3;endFill=1;exitX=1;exitY=0.5;exitDx=0;exitDy=0;entryX=0;entryY=0.5;entryDx=0;entryDy=0;fillColor=#b0e3e6;" edge="1" parent="1" source="3" target="40">
                    <mxGeometry width="50" height="50" relative="1" as="geometry">
                        <mxPoint x="109.99999999999443" y="319" as="sourcePoint"/>
                        <mxPoint x="209" y="335" as="targetPoint"/>
                    </mxGeometry>
                </mxCell>
                <mxCell id="93" value="" style="endArrow=blockThin;html=1;fontColor=#190033;strokeColor=#0e8088;endSize=6;targetPerimeterSpacing=0;sourcePerimeterSpacing=0;strokeWidth=3;endFill=1;exitX=1;exitY=0.5;exitDx=0;exitDy=0;entryX=0;entryY=0.5;entryDx=0;entryDy=0;fillColor=#b0e3e6;" edge="1" parent="1" source="3" target="39">
                    <mxGeometry width="50" height="50" relative="1" as="geometry">
                        <mxPoint x="119.99999999999443" y="329" as="sourcePoint"/>
                        <mxPoint x="219" y="345" as="targetPoint"/>
                    </mxGeometry>
                </mxCell>
                <mxCell id="94" value="" style="endArrow=blockThin;html=1;fontColor=#190033;strokeColor=#0e8088;endSize=6;targetPerimeterSpacing=0;sourcePerimeterSpacing=0;strokeWidth=3;endFill=1;exitX=1;exitY=0.5;exitDx=0;exitDy=0;entryX=0;entryY=0.5;entryDx=0;entryDy=0;fillColor=#b0e3e6;" edge="1" parent="1" source="3" target="38">
                    <mxGeometry width="50" height="50" relative="1" as="geometry">
                        <mxPoint x="129.99999999999443" y="339" as="sourcePoint"/>
                        <mxPoint x="229" y="355" as="targetPoint"/>
                    </mxGeometry>
                </mxCell>
                <mxCell id="95" value="" style="endArrow=blockThin;html=1;fontColor=#190033;strokeColor=#0e8088;endSize=6;targetPerimeterSpacing=0;sourcePerimeterSpacing=0;strokeWidth=3;endFill=1;exitX=1;exitY=0.5;exitDx=0;exitDy=0;entryX=0;entryY=0.5;entryDx=0;entryDy=0;fillColor=#b0e3e6;" edge="1" parent="1" source="3" target="45">
                    <mxGeometry width="50" height="50" relative="1" as="geometry">
                        <mxPoint x="139.99999999999443" y="349" as="sourcePoint"/>
                        <mxPoint x="239" y="365" as="targetPoint"/>
                    </mxGeometry>
                </mxCell>
                <mxCell id="96" value="" style="endArrow=blockThin;html=1;fontColor=#190033;strokeColor=#0e8088;endSize=6;targetPerimeterSpacing=0;sourcePerimeterSpacing=0;strokeWidth=3;endFill=1;exitX=1;exitY=0.5;exitDx=0;exitDy=0;entryX=0;entryY=0.5;entryDx=0;entryDy=0;fillColor=#b0e3e6;" edge="1" parent="1" source="3" target="37">
                    <mxGeometry width="50" height="50" relative="1" as="geometry">
                        <mxPoint x="149.99999999999443" y="359" as="sourcePoint"/>
                        <mxPoint x="249" y="375" as="targetPoint"/>
                    </mxGeometry>
                </mxCell>
                <mxCell id="97" value="" style="endArrow=blockThin;html=1;fontColor=#190033;strokeColor=#0e8088;endSize=6;targetPerimeterSpacing=0;sourcePerimeterSpacing=0;strokeWidth=3;endFill=1;exitX=1;exitY=0.5;exitDx=0;exitDy=0;entryX=0;entryY=0.5;entryDx=0;entryDy=0;fillColor=#b0e3e6;" edge="1" parent="1" source="3" target="36">
                    <mxGeometry width="50" height="50" relative="1" as="geometry">
                        <mxPoint x="159.99999999999443" y="369" as="sourcePoint"/>
                        <mxPoint x="259" y="385" as="targetPoint"/>
                    </mxGeometry>
                </mxCell>
            </root>
        </mxGraphModel>
    </diagram>
</mxfile>